Coordinates
version=1
nRows=12
nColumns=24
inDegrees=yes

Units are S.I. units (second, meters, Newtons, ...)
Angles are in degrees.

endheader
time	pelvis_tilt	pelvis_list	pelvis_rotation	pelvis_tx	pelvis_ty	pelvis_tz	hip_flexion_r	hip_adduction_r	hip_rotation_r	knee_angle_r	ankle_angle_r	subtalar_angle_r	mtp_angle_r	hip_flexion_l	hip_adduction_l	hip_rotation_l	knee_angle_l	ankle_angle_l	subtalar_angle_l	mtp_angle_l	lumbar_extension	lumbar_bending	lumbar_rotation
      0.46200000	     -0.50950616	     -0.65603972	      1.64372707	     -0.78904600	      0.99862012	      0.29525044	     23.12518128	      3.41031282	     -2.42396006	     -6.69659348	     -2.08656283	    -17.42709229	     -0.43292633	    -15.80361752	      2.07855174	      0.16413999	     -4.38003187	      5.65634437	     -4.14338906	      1.37069593	     -5.07314695	      3.33347987	     -0.52200278
      0.46616667	     -0.52109604	     -0.64179689	      1.69223387	     -0.78293208	      0.99795952	      0.29551127	     23.03283216	      3.44967264	     -2.52302776	     -6.62611985	     -2.21918958	    -17.38038541	     -0.46130685	    -15.86550031	      2.05302018	      0.25880838	     -4.94242382	      5.67403789	     -4.20878391	      1.53172478	     -4.99832177	      3.33704689	     -0.60292742
      0.47033333	     -0.53258043	     -0.66540677	      1.70707449	     -0.77676185	      0.99732558	      0.29587224	     22.91871290	      3.55460681	     -2.48861428	     -6.58773421	     -2.40035137	    -17.50226076	     -0.92029699	    -15.86144049	      1.98082998	      0.11989457	     -5.62492551	      5.62045240	     -4.05067862	      6.46946903	     -4.91281123	      3.36657841	     -0.67063714
      0.47450000	     -0.53860067	     -0.66369442	      1.76400941	     -0.77059583	      0.99674666	      0.29611559	     22.84425247	      3.59967205	     -2.62230169	     -6.70994589	     -2.58958717	    -17.51925754	     -0.92104180	    -15.85343249	      1.93871996	      0.18532969	     -6.32655020	      5.57416919	     -4.07087466	      6.49078350	     -4.82892309	      3.37578256	     -0.72846995
      0.47866667	     -0.58369559	     -0.66866013	      1.81564769	     -0.76441743	      0.99615648	      0.29640188	     22.79006419	      3.66120985	     -2.63267446	     -6.84532417	     -2.86092043	    -17.60014128	     -0.89680790	    -15.73838903	      1.88360663	      0.18011645	     -7.15149299	      5.55889052	     -3.90750773	      6.58309390	     -4.70019012	      3.39535628	     -0.86451557
      0.48283333	     -0.59008939	     -0.68585922	      1.83636548	     -0.75821232	      0.99562606	      0.29668519	     22.72686963	      3.73865205	     -2.67998315	     -7.09961570	     -3.18084740	    -17.70672205	     -0.87952773	    -15.65150208	      1.83043596	      0.16622673	     -8.00530416	      5.50693945	     -3.90821934	      6.64991738	     -4.61531432	      3.44247280	     -0.88879396
      0.48700000	     -0.64886521	     -0.71727515	      1.86553555	     -0.75201066	      0.99508527	      0.29704020	     22.68890004	      3.84552650	     -2.56304344	     -7.34677435	     -3.50064942	    -18.05984798	     -0.79008033	    -15.42598300	      1.74412808	      0.07171061	     -9.00731542	      5.45993270	     -3.65700291	      6.92405580	     -4.47707608	      3.48526671	     -0.99296428
      0.49116667	     -0.64238330	     -0.76132513	      1.88875350	     -0.74577887	      0.99467331	      0.29737447	     22.58319908	      3.96280176	     -2.47480120	     -7.63538604	     -3.92050751	    -18.40807303	     -0.65000660	    -15.25485027	      1.64852576	     -0.00087252	    -10.03258405	      5.34836203	     -3.52492670	      7.35853046	     -4.40616171	      3.55448445	     -1.02103053
      0.49533333	     -0.63939155	     -0.79068359	      1.91764926	     -0.73954908	      0.99428724	      0.29763528	     22.51925084	      4.04294178	     -2.49391142	     -8.03322985	     -4.35496912	    -18.50584887	     -0.61170755	    -15.06514053	      1.58092833	      0.04398196	    -11.07712453	      5.13557351	     -3.58412419	      7.49925272	     -4.34453579	      3.61991430	     -0.99508510
      0.49950000	     -0.64536260	     -0.84093318	      1.93918557	     -0.73332639	      0.99392744	      0.29799030	     22.43185195	      4.17002523	     -2.33111811	     -8.40246103	     -4.77162566	    -19.06115051	      0.69311732	    -14.78419249	      1.47395855	     -0.03265439	    -12.26395046	      4.85138272	     -3.56884462	     11.83900343	     -4.25480337	      3.68519071	     -0.94735168
      0.50366667	     -0.68043355	     -0.89731264	      1.96489698	     -0.72708099	      0.99355990	      0.29830335	     22.40420944	      4.28099506	     -2.27999688	     -8.84729124	     -5.20479135	    -19.17646015	      0.71543645	    -14.42314498	      1.36004024	     -0.11179406	    -13.54447176	      4.60028575	     -3.42436565	     11.90365473	     -4.12712019	      3.77073337	     -0.98686364
      0.50783333	     -0.66334200	     -0.98038573	      1.96727649	     -0.72086850	      0.99329032	      0.29869086	     22.32503239	      4.44289473	     -2.13282699	     -9.33212261	     -5.56204370	    -19.63074304	      0.78134215	    -14.06861412	      1.20907609	     -0.26331844	    -14.90655316	      4.31029230	     -3.23537174	     12.18767724	     -4.07585537	      3.89405227	     -0.98805524
